<svg width="50" height="50" viewBox="0 0 50 50" fill="none" xmlns="http://www.w3.org/2000/svg">
<path opacity="0.1" d="M25 2.08333L30 0L33.75 3.83333H39.1667L41.25 8.75L46.1667 10.8333V16.25L50 20L47.9167 25L50 30L46.1667 33.75V39.1667L41.25 41.25L39.1667 46.1667H33.75L30 50L25 47.9167L20 50L16.25 46.1667H10.8333L8.75 41.25L3.83333 39.1667V33.75L0 30L2.08333 25L0 20L3.83333 16.25V10.8333L8.75 8.75L10.8333 3.83333H16.25L20 0L25 2.08333Z" fill="#056551"/>
<ellipse cx="25.5" cy="24.5" rx="7.5" ry="4.5" fill="#AAD3EF"/>
<path fill-rule="evenodd" clip-rule="evenodd" d="M27.9278 32.4385L34.8889 35L32.6378 30.2567C34.7111 28.6419 36 26.3863 36 23.8889C36 18.9796 31.0252 15 24.8889 15C18.7526 15 13.7778 18.9796 13.7778 23.8889C13.7778 28.7981 18.7526 32.7778 24.8889 32.7778C25.9113 32.7783 26.9306 32.6645 27.9278 32.4385ZM20.4444 25C20.1456 25 19.8591 24.8813 19.6478 24.67C19.4365 24.4587 19.3178 24.1722 19.3178 23.8733C19.3178 23.5745 19.4365 23.288 19.6478 23.0767C19.8591 22.8654 20.1456 22.7467 20.4444 22.7467C20.7433 22.7467 21.0298 22.8654 21.2411 23.0767C21.4524 23.288 21.5711 23.5745 21.5711 23.8733C21.5711 24.1722 21.4524 24.4587 21.2411 24.67C21.0298 24.8813 20.7433 25 20.4444 25ZM23.848 24.3045C23.7914 24.1678 23.7622 24.0213 23.7622 23.8733C23.7622 23.7254 23.7914 23.5789 23.848 23.4422C23.9046 23.3055 23.9876 23.1813 24.0922 23.0767C24.1968 22.972 24.321 22.8891 24.4577 22.8324C24.5944 22.7758 24.7409 22.7467 24.8889 22.7467C25.1877 22.7467 25.4743 22.8654 25.6856 23.0767C25.8969 23.288 26.0156 23.5745 26.0156 23.8733C26.0156 24.1722 25.8969 24.4587 25.6856 24.67C25.4743 24.8813 25.1877 25 24.8889 25C24.7409 25 24.5944 24.9709 24.4577 24.9142C24.321 24.8576 24.1968 24.7746 24.0922 24.67C23.9876 24.5654 23.9046 24.4412 23.848 24.3045ZM28.5367 24.6082C28.3254 24.3969 28.2067 24.1103 28.2067 23.8115C28.2067 23.5127 28.3254 23.2261 28.5367 23.0148C28.7479 22.8035 29.0345 22.6848 29.3333 22.6848C29.4813 22.6848 29.6278 22.714 29.7645 22.7706C29.9012 22.8272 30.0254 22.9102 30.13 23.0148C30.2346 23.1194 30.3176 23.2436 30.3742 23.3803C30.4309 23.517 30.46 23.6635 30.46 23.8115C30.46 23.9594 30.4309 24.106 30.3742 24.2426C30.3176 24.3793 30.2346 24.5035 30.13 24.6082C30.0254 24.7128 29.9012 24.7958 29.7645 24.8524C29.6278 24.909 29.4813 24.9382 29.3333 24.9382C29.0345 24.9382 28.7479 24.8195 28.5367 24.6082Z" fill="#056551"/>
</svg>
